<svg width="149" height="42" viewBox="0 0 149 42" fill="none" xmlns="http://www.w3.org/2000/svg">
<g clip-path="url(#clip0_1_28893)">
<path fill-rule="evenodd" clip-rule="evenodd" d="M59.0938 29.9795C59.4952 30.569 59.6959 31.2655 59.6959 32.0689C59.6959 32.8723 59.4952 33.5817 59.0938 34.1972C58.6923 34.8127 58.1258 35.2889 57.3941 35.6258C56.656 35.9692 55.8013 36.1409 54.8301 36.1409H49.1388V23.2544H58.6858V25.8686H52.2369V28.1233H54.8301C55.8143 28.1233 56.6722 28.2852 57.4038 28.6092C58.129 28.9331 58.6923 29.3899 59.0938 29.9795ZM56.5589 32.0689C56.5589 31.6348 56.4067 31.2979 56.1024 31.0582C55.7981 30.8185 55.3805 30.6986 54.8495 30.6986H52.2369V33.5655H54.8495C55.3805 33.5655 55.7981 33.4327 56.1024 33.1671C56.4067 32.9014 56.5589 32.5354 56.5589 32.0689ZM73.4775 12.8169C73.4775 11.845 73.6523 10.9445 74.002 10.1152C74.3516 9.29237 74.8404 8.58293 75.4685 7.98687C76.103 7.38434 76.8476 6.91786 77.7023 6.58743C78.5635 6.25701 79.512 6.0918 80.548 6.0918C81.6616 6.0918 82.6717 6.31208 83.5782 6.75264C84.4847 7.19969 85.226 7.77955 85.8023 8.49222L83.821 10.5234C83.4519 9.99857 82.9825 9.58068 82.4127 9.26969C81.8429 8.96518 81.2214 8.81293 80.548 8.81293C79.8228 8.81293 79.1753 8.98462 78.6055 9.328C78.0358 9.67138 77.589 10.1411 77.2653 10.7372C76.9415 11.3397 76.7796 12.0329 76.7796 12.8169C76.7796 13.5943 76.9415 14.2876 77.2653 14.8966C77.589 15.5056 78.0358 15.9818 78.6055 16.3252C79.1753 16.6686 79.8228 16.8403 80.548 16.8403C81.2214 16.8403 81.8429 16.6815 82.4127 16.3641C82.9825 16.0531 83.4519 15.6384 83.821 15.1201L85.8023 17.161C85.226 17.8672 84.4749 18.4438 83.549 18.8908C82.6167 19.3379 81.5904 19.5614 80.4703 19.5614C79.4278 19.5614 78.4793 19.3962 77.6246 19.0658C76.7699 18.7353 76.035 18.2689 75.4199 17.6663C74.7984 17.0638 74.3192 16.3511 73.9825 15.5283C73.6459 14.7055 73.4775 13.8017 73.4775 12.8169ZM69.4275 23.2544H72.584L67.7182 33.3323C67.4009 33.9672 67.0351 34.492 66.6207 34.9067C66.2063 35.3213 65.7304 35.6323 65.193 35.8396C64.6491 36.0405 64.0308 36.1409 63.338 36.1409H61.2984V33.5461H63.1243C63.5517 33.5461 63.924 33.4748 64.2412 33.3323C64.5067 33.2092 64.7527 33.0116 64.9793 32.7395L60.2689 23.2544H63.4254L66.5139 29.7657L69.4275 23.2544ZM65.1153 19.2699H62.0171V6.38335H65.1153V12.3893L70.1074 6.38335H73.8563L68.5437 12.5739L74.6138 19.2699H70.5833L65.1153 13.089V19.2699ZM50.3819 18.9006C49.4301 18.4535 48.6661 17.8737 48.0898 17.161L49.9837 15.2562C50.4046 15.7097 50.9161 16.0887 51.5183 16.3932C52.1139 16.6913 52.7808 16.8403 53.519 16.8403C54.3089 16.8403 54.9887 16.6686 55.5585 16.3252C56.1283 15.9818 56.5686 15.5089 56.8794 14.9063C57.0218 14.6213 57.1287 14.3167 57.1999 13.9928H51.4794V11.398H57.1416C57.0704 11.1712 56.9862 10.9542 56.8891 10.7469C56.5848 10.1443 56.151 9.67138 55.5877 9.328C55.0243 8.98462 54.3445 8.81293 53.5481 8.81293C52.8423 8.81293 52.1852 8.96842 51.5765 9.27941C50.9679 9.58392 50.4564 9.98237 50.042 10.4748L48.1481 8.49222C48.7244 7.78602 49.4819 7.2094 50.4208 6.76236C51.3661 6.31532 52.4085 6.0918 53.5481 6.0918C54.61 6.0918 55.5618 6.25701 56.4035 6.58743C57.2517 6.91786 57.9769 7.38434 58.579 7.98687C59.1812 8.58941 59.6441 9.30209 59.9679 10.1249C60.2916 10.9477 60.4535 11.8515 60.4535 12.8363C60.4535 14.1451 60.1718 15.3048 59.6085 16.3155C59.0452 17.3262 58.2488 18.1199 57.2193 18.6965C56.1898 19.2731 54.979 19.5614 53.5869 19.5614C52.3956 19.5614 51.3272 19.3411 50.3819 18.9006ZM90.5224 19.2699H87.4242V6.38335H98.8457V19.2699H95.7476V8.97814H90.5224V19.2699ZM127.468 10.7469C127.144 11.3429 126.982 12.0329 126.982 12.8169C126.982 13.6008 127.144 14.2941 127.468 14.8966C127.791 15.5056 128.238 15.9818 128.808 16.3252C129.378 16.6686 130.022 16.8403 130.741 16.8403C131.414 16.8403 132.036 16.6815 132.605 16.3641C133.175 16.0531 133.648 15.6384 134.023 15.1201L136.005 17.161C135.428 17.8737 134.674 18.4503 133.742 18.8908C132.809 19.3379 131.786 19.5614 130.673 19.5614C129.624 19.5614 128.675 19.3962 127.827 19.0658C126.972 18.7353 126.234 18.2689 125.613 17.6663C124.997 17.0638 124.522 16.3511 124.185 15.5283C123.848 14.7055 123.68 13.8017 123.68 12.8169C123.68 11.845 123.855 10.9477 124.204 10.1249C124.554 9.30209 125.043 8.58941 125.671 7.98687C126.299 7.38434 127.043 6.91786 127.905 6.58743C128.766 6.25701 129.711 6.0918 130.741 6.0918C131.861 6.0918 132.874 6.31532 133.78 6.76236C134.687 7.20293 135.428 7.77955 136.005 8.49222L134.023 10.5234C133.648 9.99857 133.175 9.58068 132.605 9.26969C132.036 8.96518 131.414 8.81293 130.741 8.81293C130.022 8.81293 129.378 8.98462 128.808 9.328C128.238 9.67138 127.791 10.1443 127.468 10.7469ZM112.977 6.38335H122.378V8.95871H116.075V11.5049H122.038V14.0803H116.075V16.6945H122.378V19.2699H112.977V6.38335ZM147.018 15.1298L148.999 17.1707C148.423 17.8769 147.669 18.4535 146.737 18.9006C145.804 19.3411 144.781 19.5614 143.667 19.5614C142.619 19.5614 141.667 19.3962 140.812 19.0658C139.964 18.7353 139.229 18.2721 138.607 17.6761C137.992 17.0735 137.516 16.3608 137.18 15.538C136.843 14.7152 136.675 13.8082 136.675 12.8169C136.675 11.845 136.85 10.9477 137.199 10.1249C137.542 9.30209 138.031 8.58941 138.666 7.98687C139.294 7.39081 140.038 6.92433 140.9 6.58743C141.754 6.25701 142.7 6.0918 143.735 6.0918C144.849 6.0918 145.862 6.31532 146.775 6.76236C147.682 7.2094 148.423 7.78602 148.999 8.49222L147.018 10.5331C146.643 10.0018 146.17 9.58392 145.6 9.27941C145.03 8.9749 144.409 8.82265 143.735 8.82265C143.017 8.82265 142.373 8.9911 141.803 9.328C141.226 9.67138 140.776 10.1443 140.453 10.7469C140.129 11.3494 139.967 12.0394 139.967 12.8169C139.967 13.6008 140.129 14.2973 140.453 14.9063C140.776 15.5089 141.226 15.9818 141.803 16.3252C142.373 16.6686 143.017 16.8403 143.735 16.8403C144.409 16.8403 145.03 16.6848 145.6 16.3738C146.17 16.0628 146.643 15.6482 147.018 15.1298ZM87.0649 23.2544H96.476V25.8395H90.163V28.3759H96.1263V30.961H90.163V33.5753H96.476V36.1506H87.0649V23.2544ZM110.656 8.35617C111.064 8.97166 111.268 9.69406 111.268 10.5234C111.268 11.3462 111.064 12.0686 110.656 12.6905C110.248 13.3125 109.675 13.7984 108.937 14.1483C108.205 14.4982 107.36 14.6731 106.402 14.6731H104.11V19.2699H101.012V6.38335H106.402C107.36 6.38335 108.205 6.55504 108.937 6.89842C109.675 7.24828 110.248 7.73419 110.656 8.35617ZM108.131 10.5234C108.131 10.0439 107.975 9.6649 107.664 9.38631C107.347 9.10124 106.926 8.95871 106.402 8.95871H104.11V12.0977H106.402C106.926 12.0977 107.347 11.9552 107.664 11.6701C107.975 11.3915 108.131 11.0093 108.131 10.5234ZM80.0041 29.445L86.0742 36.1409H82.0437L76.5757 29.9697V36.1409H73.4775V23.2544H76.5757V29.2603L81.5678 23.2544H85.3167L80.0041 29.445ZM97.826 23.2544H108.665V25.8686H104.799V36.1409H101.691V25.8686H97.826V23.2544Z" fill="#121010"/>
<path d="M25.5969 26.5788C24.4218 27.6673 23.907 29.2417 24.043 30.8743C23.1106 29.5332 21.7315 28.6488 20.1581 28.5905C18.8081 28.5419 17.5552 29.0862 16.5743 30.0386C16.4675 28.6391 15.9139 27.2688 14.8844 26.1609C13.9812 25.1794 12.8448 24.5477 11.6405 24.2562C12.3786 23.2552 12.8254 22.0404 12.874 20.6993C12.9322 19.3678 12.5729 18.1142 11.9222 17.0646C13.1459 16.8702 14.3308 16.326 15.302 15.4222C16.2829 14.5184 16.9142 13.3813 17.2056 12.1763C18.1962 12.9051 19.42 13.3619 20.7506 13.4105C24.3052 13.5466 27.2966 10.7768 27.4422 7.2102C27.5782 3.64357 24.8102 0.650324 21.2556 0.504549C18.1185 0.387929 15.4283 2.52596 14.729 5.47062C12.2912 3.68245 8.86283 3.80878 6.56104 5.9371C4.25925 8.07513 3.86106 11.496 5.44414 14.0713C2.4625 14.5378 0.121862 17.0646 0.00531563 20.1939C-0.120943 23.3329 2.01574 26.0346 4.94882 26.7343C3.17149 29.1736 3.29775 32.6236 5.42472 34.9269C7.84305 37.5411 11.9125 37.7063 14.525 35.2865C14.5315 35.28 14.538 35.2735 14.5445 35.267C14.6027 38.6393 16.8171 41.3896 19.6531 41.4965C22.6056 41.6131 25.1113 38.8142 25.257 35.2573C25.27 34.8815 25.257 34.5122 25.2182 34.1494C25.4318 34.4669 25.6714 34.7714 25.9369 35.063C28.3552 37.6772 32.1138 38.1242 34.3476 36.0639C36.5717 33.9939 36.4163 30.2038 34.0077 27.5798C31.5894 24.9656 27.821 24.5088 25.5969 26.5788ZM26.3836 16.2774C27.6948 17.706 30.8707 16.8994 33.4832 14.4795C36.1055 12.0499 37.1544 8.94006 35.8433 7.51147C34.5321 6.09259 31.3465 6.89921 28.734 9.31908C26.1214 11.7389 25.0628 14.8585 26.3836 16.2774ZM34.6196 17.4145C31.0649 17.2784 28.1124 19.018 28.025 21.3018C27.9376 23.5856 30.7444 25.5487 34.2991 25.6848C37.8537 25.8305 40.8062 24.0909 40.9033 21.8071C40.9908 19.5233 38.1742 17.5505 34.6196 17.4145Z" fill="#F04508"/>
</g>
<defs>
<clipPath id="clip0_1_28893">
<rect width="149" height="41" fill="white" transform="translate(0 0.5)"/>
</clipPath>
</defs>
</svg>
